<svg width="26" height="26" viewBox="0 0 26 26" fill="none" xmlns="http://www.w3.org/2000/svg">
<path d="M23.574 18.1914L23.5738 21.378C23.575 21.6739 23.5144 21.9667 23.3958 22.2377C23.2773 22.5088 23.1034 22.7521 22.8854 22.9521C22.6673 23.1521 22.4099 23.3044 22.1296 23.3991C21.8493 23.4939 21.5523 23.5291 21.2576 23.5025C17.9884 23.1473 14.8481 22.0304 12.089 20.2415C9.52213 18.6106 7.34589 16.4347 5.71487 13.8682C3.91952 11.0971 2.80234 7.94206 2.45382 4.65875C2.42728 4.36501 2.46222 4.06897 2.5564 3.78946C2.65057 3.50995 2.80193 3.25311 3.00082 3.03528C3.19972 2.81746 3.4418 2.64342 3.71165 2.52425C3.9815 2.40508 4.27321 2.3434 4.5682 2.34312H7.75549C8.2711 2.33805 8.77095 2.52059 9.16187 2.85674C9.55279 3.19288 9.80811 3.65968 9.88024 4.17013L10.6237 7.15496C10.6237 7.15496 10.7976 7.94835 10.7128 8.34558C10.628 8.74281 10.4312 9.10743 10.1455 9.39624L8.79613 10.7453C10.3084 13.4046 12.5105 15.6064 15.1703 17.1186L16.5197 15.7695C16.8086 15.4839 17.1733 15.2871 17.5706 15.2024C17.9679 15.1177 18.3812 15.1486 18.7614 15.2915L21.7468 16.0351C21.7468 16.0351 22.7342 16.3678 23.0711 16.7654C23.408 17.1629 23.587 17.6705 23.574 18.1914Z" stroke="#F3252C" stroke-width="2" stroke-linecap="square"/>
</svg>
