<svg width="92" height="64" viewBox="0 0 92 64" fill="none" xmlns="http://www.w3.org/2000/svg">
<path d="M69.0434 40.4405C62.6893 40.4405 57.5201 45.6097 57.5201 51.9638C57.5201 58.3178 62.6893 63.487 69.0434 63.487C75.3985 63.487 80.5667 58.3178 80.5667 51.9638C80.5667 45.6097 75.3974 40.4405 69.0434 40.4405ZM69.0434 57.7254C65.8659 57.7254 63.2817 55.1412 63.2817 51.9638C63.2817 48.7863 65.8659 46.2021 69.0434 46.2021C72.2209 46.2021 74.805 48.7863 74.805 51.9638C74.805 55.1414 72.2209 57.7254 69.0434 57.7254Z" fill="#ECF4FC"/>
<path d="M29.6724 40.4405C23.3183 40.4405 18.1491 45.6097 18.1491 51.9638C18.1491 58.3178 23.3183 63.487 29.6724 63.487C36.0264 63.487 41.1956 58.3178 41.1956 51.9638C41.1956 45.6097 36.0264 40.4405 29.6724 40.4405ZM29.6724 57.7254C26.4949 57.7254 23.9107 55.1412 23.9107 51.9638C23.9107 48.7863 26.4949 46.2021 29.6724 46.2021C32.849 46.2021 35.434 48.7863 35.434 51.9638C35.434 55.1414 32.8499 57.7254 29.6724 57.7254Z" fill="#ECF4FC"/>
<path d="M76.8034 7.45727C76.3136 6.48453 75.3178 5.87085 74.2288 5.87085H59.0565V11.6325H72.4523L80.2967 27.2349L85.4457 24.6459L76.8034 7.45727Z" fill="#ECF4FC"/>
<path d="M60.401 49.1791H38.6029V54.9408H60.401V49.1791Z" fill="#ECF4FC"/>
<path d="M21.0298 49.1791H11.0432C9.45193 49.1791 8.16245 50.4688 8.16245 52.0599C8.16245 53.6511 9.45211 54.9406 11.0432 54.9406H21.03C22.6213 54.9406 23.9107 53.6509 23.9107 52.0599C23.9107 50.4686 22.6211 49.1791 21.0298 49.1791Z" fill="#ECF4FC"/>
<path d="M90.8128 31.5677L85.1463 24.2696C84.6019 23.5666 83.7617 23.1556 82.8714 23.1556H61.9375V2.98998C61.9375 1.39874 60.6478 0.109253 59.0568 0.109253H11.0432C9.45193 0.109253 8.16245 1.39892 8.16245 2.98998C8.16245 4.58104 9.45211 5.87071 11.0432 5.87071H56.1759V26.0363C56.1759 27.6276 57.4655 28.9171 59.0566 28.9171H81.4607L85.6561 34.3214V49.1788H77.6858C76.0946 49.1788 74.8051 50.4684 74.8051 52.0595C74.8051 53.6507 76.0947 54.9402 77.6858 54.9402H88.5368C90.1281 54.9402 91.4176 53.6506 91.4177 52.0595V33.3346C91.4177 32.695 91.2045 32.0728 90.8128 31.5677Z" fill="#ECF4FC"/>
<path d="M20.8379 34.583H7.58605C5.99481 34.583 4.70532 35.8727 4.70532 37.4637C4.70532 39.055 5.99499 40.3445 7.58605 40.3445H20.8377C22.4289 40.3445 23.7184 39.0548 23.7184 37.4637C23.7186 35.8727 22.4289 34.583 20.8379 34.583Z" fill="#ECF4FC"/>
<path d="M27.4637 23.2516H2.88073C1.28967 23.2516 0 24.5413 0 26.1326C0 27.7238 1.28967 29.0133 2.88073 29.0133H27.4637C29.0549 29.0133 30.3444 27.7236 30.3444 26.1326C30.3444 24.5415 29.0549 23.2516 27.4637 23.2516Z" fill="#ECF4FC"/>
<path d="M32.169 11.9205H7.58605C5.99481 11.9205 4.70532 13.2102 4.70532 14.8013C4.70532 16.3925 5.99499 17.682 7.58605 17.682H32.169C33.7603 17.682 35.0497 16.3923 35.0497 14.8013C35.0499 13.2102 33.7603 11.9205 32.169 11.9205Z" fill="#ECF4FC"/>
</svg>
