<svg width="62" height="62" viewBox="0 0 62 62" fill="none" xmlns="http://www.w3.org/2000/svg">
<path d="M32.9375 58.0281V52.3125H29.0625V58.0281C15.6298 57.0533 4.94668 46.3702 3.97187 32.9375H9.6875V29.0625H3.97187C4.98749 14.8805 16.7817 3.88941 31 3.875V0C13.8792 0 0 13.8792 0 31C0 48.1208 13.8792 62 31 62C48.1208 62 62 48.1208 62 31H58.125C58.1106 45.2183 47.1195 57.0125 32.9375 58.0281Z" fill="#ECF4FC"/>
<path d="M29.0625 27.125V31C29.0595 31.515 29.2617 32.0099 29.6244 32.3756L39.3119 42.0631L42.0438 39.3313L32.9375 30.2056V27.125H29.0625Z" fill="#ECF4FC"/>
<path d="M46.5 31C55.0604 31 62 24.0604 62 15.5C62 6.93964 55.0604 0 46.5 0C37.9396 0 31 6.93964 31 15.5C31 24.0604 37.9396 31 46.5 31ZM46.5 3.875C52.9203 3.875 58.125 9.07973 58.125 15.5C58.125 21.9203 52.9203 27.125 46.5 27.125C40.0797 27.125 34.875 21.9203 34.875 15.5C34.875 9.07973 40.0797 3.875 46.5 3.875Z" fill="#ECF4FC"/>
<path d="M44.5625 23.25H48.4375V17.4375H54.25V13.5625H48.4375V7.75H44.5625V13.5625H38.75V17.4375H44.5625V23.25Z" fill="#ECF4FC"/>
</svg>
