<svg width="88" height="65" viewBox="0 0 88 65" fill="none" xmlns="http://www.w3.org/2000/svg">
<path d="M76.9157 29.7739C73.9492 28.2908 68.3872 28.2736 68.1519 28.2736C67.4467 28.2736 66.8749 28.8454 66.8749 29.5507C66.8749 30.2559 67.4467 30.8277 68.1519 30.8277C69.5872 30.8279 73.7543 31.0489 75.7735 32.0584C75.9569 32.1502 76.1517 32.1935 76.3436 32.1935C76.812 32.1935 77.2631 31.9347 77.4868 31.4874C77.8023 30.8565 77.5466 30.0894 76.9157 29.7739Z" fill="#ECF4FC"/>
<path d="M83.2826 47.9558L78.0084 46.4489C77.7807 46.3839 77.6217 46.173 77.6217 45.9362V44.1757C78.0508 43.8785 78.4601 43.5457 78.8427 43.1744C80.697 41.3749 81.7181 38.9613 81.7181 36.3779V33.9486L82.2281 32.9289C82.7878 31.8093 83.0835 30.556 83.0835 29.3044V22.7234C83.0835 22.0181 82.5117 21.4463 81.8065 21.4463H69.5174C65.0487 21.4463 61.413 25.082 61.413 29.5507V29.6268C61.413 30.6675 61.6591 31.7097 62.1244 32.6404L62.7785 33.9485V36.0343C62.7785 39.34 64.4075 42.306 66.8749 44.0908L66.8752 45.9359C66.8752 46.2204 66.8752 46.3382 65.8207 46.6396L63.2472 47.3748L55.8027 44.6678C55.8294 44.3166 55.7109 43.9593 55.4547 43.6901L53.0758 41.1909V36.9953C53.3273 36.7881 53.5752 36.5753 53.8155 36.3502C56.8165 33.5373 58.5376 29.5658 58.5376 25.4542V22.1036C59.4438 20.1317 59.9031 18.045 59.9031 15.896V2.24177C59.9031 1.5365 59.3313 0.964722 58.626 0.964722H39.5096C32.7821 0.964722 27.3091 6.43798 27.3091 13.1653V15.8963C27.3091 18.0453 27.7683 20.132 28.6745 22.1039V24.9868C28.6745 29.7606 30.7971 34.0614 34.1363 36.8968V41.191L31.7574 43.6903C31.5012 43.9595 31.3827 44.3167 31.4094 44.668L23.5522 47.525C22.9828 47.7321 22.4537 48.0125 21.9734 48.3522L20.7396 47.7353C24.4124 46.1366 25.5759 43.8882 25.6317 43.7765C25.8115 43.417 25.8115 42.9937 25.6317 42.6343C24.711 40.7929 24.5995 37.418 24.5099 34.7062C24.4801 33.8034 24.4519 32.9505 24.3979 32.1911C23.9625 26.0657 19.3059 21.4463 13.566 21.4463C7.82609 21.4463 3.16929 26.0655 2.73407 32.1911C2.6801 32.9507 2.65183 33.8036 2.62203 34.7065C2.53247 37.4181 2.42077 40.7928 1.50028 42.6341C1.32047 42.9935 1.32047 43.4168 1.50028 43.7763C1.55612 43.888 2.71722 46.1318 6.39733 47.7324L2.97024 49.4459C1.1381 50.3626 0 52.2041 0 54.2523V63.687C0 64.3923 0.571777 64.964 1.27705 64.964C1.98232 64.964 2.55409 64.3923 2.55409 63.687V54.2523C2.55409 53.1776 3.15124 52.2113 4.11243 51.7306L8.37999 49.5969L9.86442 51.0076C10.9024 51.994 12.2339 52.4869 13.566 52.4869C14.8977 52.4869 16.2299 51.9937 17.2676 51.0076L18.7518 49.5971L20.1433 50.2928C19.4881 51.3412 19.1162 52.5705 19.1162 53.8583V63.6873C19.1162 64.3926 19.688 64.9644 20.3933 64.9644C21.0985 64.9644 21.6703 64.3926 21.6703 63.6873V53.8583C21.6703 52.1052 22.7772 50.5247 24.425 49.9255L32.7091 46.9132L36.1576 52.0863C36.5985 52.7476 37.3049 53.1718 38.0959 53.2501C38.1841 53.2588 38.2718 53.263 38.3593 53.263C39.057 53.263 39.7254 52.9884 40.225 52.489L42.3288 50.3851V63.6875C42.3288 64.3928 42.9006 64.9645 43.6059 64.9645C44.3112 64.9645 44.8829 64.3928 44.8829 63.6875V50.3851L46.9868 52.489C47.4862 52.9886 48.1546 53.2632 48.8525 53.2632C48.9399 53.2632 49.0277 53.259 49.1158 53.2503C49.9068 53.172 50.6133 52.7478 51.0541 52.0865L54.5029 46.9136L62.7868 49.9259C64.4344 50.5251 65.5415 52.1055 65.5415 53.8587V63.6877C65.5415 64.3929 66.1133 64.9647 66.8185 64.9647C67.5238 64.9647 68.0956 64.3929 68.0956 63.6877V53.8587C68.0956 52.0831 67.3901 50.4178 66.2067 49.1862L66.5223 49.0961C66.8405 49.0052 67.2747 48.8807 67.7106 48.667L70.9711 51.9276V63.6877C70.9711 64.3929 71.5429 64.9647 72.2482 64.9647C72.9535 64.9647 73.5252 64.3929 73.5252 63.6877V51.9276L76.7632 48.6897C76.9353 48.7772 77.1161 48.8511 77.3065 48.9054L82.5809 50.4123C83.7847 50.7563 84.6257 51.8711 84.6257 53.1233V63.6877C84.6257 64.3929 85.1975 64.9647 85.9027 64.9647C86.608 64.9647 87.1798 64.3929 87.1798 63.6877V53.1233C87.1798 50.7364 85.5772 48.6115 83.2826 47.9558ZM8.19269 45.7002C5.80393 44.8407 4.60571 43.6947 4.09421 43.069C4.44293 42.1573 4.66906 41.1132 4.82213 40.011C5.52638 41.6996 6.70586 43.1412 8.19269 44.1696V45.7002ZM15.5085 49.1564C14.4192 50.1913 12.7129 50.1912 11.624 49.1562L10.4364 48.0277C10.6368 47.6522 10.747 47.2265 10.747 46.7806V45.4194C11.6378 45.6978 12.5849 45.848 13.5663 45.848C14.5466 45.848 15.4931 45.6971 16.3855 45.4203L16.3854 46.7804C16.3854 47.2265 16.4954 47.6524 16.6959 48.028L15.5085 49.1564ZM13.5667 43.2939C9.75324 43.2939 6.65103 40.1915 6.65103 36.3783C6.65103 35.673 6.07926 35.1012 5.37399 35.1012C5.30247 35.1012 5.23266 35.1085 5.16438 35.12C5.16813 35.0101 5.1717 34.9001 5.17545 34.7913C5.20388 33.9132 5.2313 33.0838 5.28187 32.3724C5.44499 30.0778 6.36191 27.9634 7.86372 26.4183C9.37898 24.8593 11.4042 24.0008 13.5663 24.0008C15.7285 24.0008 17.7535 24.8593 19.2689 26.4183C20.7708 27.9634 21.6877 30.0778 21.8508 32.3724C21.9012 33.0837 21.9288 33.9129 21.9577 34.7908C21.9603 34.8662 21.9628 34.9427 21.9654 35.0186C20.576 32.878 18.4302 31.3004 15.6576 30.4095C13.0962 29.5866 10.8932 29.6375 10.8002 29.6399C10.4658 29.6493 10.1484 29.7892 9.91636 30.03L7.61222 32.4196C7.12269 32.9273 7.13733 33.7358 7.64509 34.2253C8.15284 34.7149 8.9613 34.7001 9.45083 34.1925L11.3681 32.2042C13.0192 32.2849 18.3312 32.9027 20.3972 37.4518C19.8773 40.8042 16.996 43.2939 13.5667 43.2939ZM18.9393 45.7045L18.9395 44.1814C20.4251 43.1585 21.6063 41.7197 22.311 40.0184C22.4641 41.118 22.6901 42.1597 23.0381 43.0693C22.5295 43.6891 21.3257 44.8453 18.9393 45.7045ZM31.2286 24.9867V21.8182C31.2286 21.626 31.1852 21.4361 31.1016 21.263C30.2798 19.5613 29.8632 17.7557 29.8632 15.8963V13.1655C29.8632 7.8463 34.1906 3.51899 39.5096 3.51899H57.349V15.8965C57.349 17.7559 56.9323 19.5614 56.1106 21.2631C56.027 21.4363 55.9835 21.6262 55.9835 21.8184V25.4546C55.9835 28.913 54.5933 32.1208 52.0688 34.487C51.7536 34.7823 51.4265 35.0592 51.0884 35.3171C51.0809 35.3222 51.0737 35.3279 51.0664 35.3331C48.7015 37.1287 45.8048 38.0013 42.7797 37.8053C36.3024 37.3859 31.2286 31.7554 31.2286 24.9867ZM38.419 50.6827C38.4102 50.6916 38.3896 50.7125 38.3479 50.7081C38.3063 50.704 38.29 50.6797 38.283 50.6691L34.3114 44.7116L35.5894 43.3687L41.6145 47.487L38.419 50.6827ZM43.6061 45.7545L36.6904 41.0274V38.6436C38.4798 39.6109 40.4834 40.2159 42.6144 40.3538C42.951 40.3756 43.2856 40.3863 43.6192 40.3863C46.0611 40.3863 48.4112 39.8026 50.5217 38.6947V41.0274L43.6061 45.7545ZM48.9291 50.6694C48.9222 50.68 48.9058 50.7044 48.8643 50.7084C48.8225 50.7137 48.8021 50.6918 48.7931 50.6831L45.5976 47.4876L51.6227 43.369L52.9009 44.7119L48.9291 50.6694ZM72.2482 49.592L69.3501 46.6941C69.4007 46.4644 69.4293 46.2129 69.4292 45.9355L69.429 45.3966C70.2332 45.6605 71.0808 45.8172 71.9579 45.8434C72.0563 45.8465 72.1539 45.8478 72.2519 45.8478C73.2211 45.8478 74.1672 45.7014 75.0676 45.422V45.9362C75.0676 46.1909 75.0996 46.4405 75.1599 46.6805L72.2482 49.592ZM77.064 41.3416C75.7105 42.655 73.9225 43.3487 72.0347 43.2905C68.3391 43.1797 65.3326 39.9245 65.3326 36.0347V33.6473C65.3326 33.4489 65.2864 33.2534 65.1977 33.0762L64.4088 31.4984C64.1199 30.9203 63.9671 30.2733 63.9671 29.6269V29.5508C63.9671 26.4903 66.457 24.0006 69.5174 24.0006H80.5294V29.3046C80.5294 30.1618 80.3268 31.0201 79.9435 31.7869L79.2989 33.0762C79.2101 33.2536 79.164 33.4489 79.164 33.6473V36.3781C79.164 38.2647 78.4182 40.0274 77.064 41.3416Z" fill="#ECF4FC"/>
<path d="M80.4409 54.2173C79.7356 54.2173 79.1638 54.7891 79.1638 55.4943V63.687C79.1638 64.3923 79.7356 64.9641 80.4409 64.9641C81.1461 64.9641 81.7179 64.3923 81.7179 63.687V55.4943C81.7179 54.7892 81.1461 54.2173 80.4409 54.2173Z" fill="#ECF4FC"/>
<path d="M6.7389 55.9053C6.03363 55.9053 5.46185 56.4771 5.46185 57.1824V63.687C5.46185 64.3922 6.03363 64.964 6.7389 64.964C7.44417 64.964 8.01595 64.3922 8.01595 63.687V57.1824C8.01595 56.4773 7.44417 55.9053 6.7389 55.9053Z" fill="#ECF4FC"/>
<path d="M54.0671 16.3589C49.2371 11.529 39.1316 12.4523 35.0106 13.0735C33.7126 13.2691 32.7707 14.3676 32.7707 15.6853V18.6273C32.7707 19.3326 33.3425 19.9043 34.0477 19.9043C34.753 19.9043 35.3248 19.3326 35.3248 18.6273V15.6851C35.3248 15.6417 35.3534 15.6046 35.3915 15.5988C37.0376 15.3507 40.3039 14.968 43.6881 15.1936C47.6704 15.4587 50.5549 16.4584 52.2612 18.1648C52.7599 18.6636 53.5685 18.6636 54.0671 18.1648C54.5658 17.6661 54.5658 16.8575 54.0671 16.3589Z" fill="#ECF4FC"/>
<path d="M28.5861 56.9483C27.8809 56.9483 27.3091 57.52 27.3091 58.2253V63.6872C27.3091 64.3924 27.8809 64.9642 28.5861 64.9642C29.2914 64.9642 29.8632 64.3924 29.8632 63.6872V58.2253C29.8632 57.5202 29.2914 56.9483 28.5861 56.9483Z" fill="#ECF4FC"/>
<path d="M58.626 56.9483C57.9207 56.9483 57.3489 57.52 57.3489 58.2253V63.6872C57.3489 64.3924 57.9207 64.9642 58.626 64.9642C59.3313 64.9642 59.903 64.3924 59.903 63.6872V58.2253C59.903 57.5202 59.3313 56.9483 58.626 56.9483Z" fill="#ECF4FC"/>
</svg>
