<svg width="24" height="22" viewBox="0 0 24 22" fill="none" xmlns="http://www.w3.org/2000/svg">
<path d="M23.0529 15.3H7.12161L7.92152 13.6707L21.2124 13.6466C21.6618 13.6466 22.047 13.3256 22.1273 12.8815L23.9679 2.57898C24.0161 2.30877 23.9438 2.03054 23.7673 1.8192C23.68 1.71518 23.5711 1.63139 23.4483 1.57365C23.3254 1.5159 23.1914 1.48558 23.0556 1.48478L6.14781 1.4286L6.00334 0.74908C5.91238 0.315684 5.52179 0 5.07769 0H0.944376C0.693912 0 0.453706 0.0994964 0.276601 0.276601C0.0994965 0.453706 0 0.693912 0 0.944376C0 1.19484 0.0994965 1.43505 0.276601 1.61215C0.453706 1.78926 0.693912 1.88875 0.944376 1.88875H4.31256L4.94393 4.89042L6.49827 12.416L4.49716 15.6825C4.39324 15.8228 4.33064 15.9893 4.31646 16.1633C4.30228 16.3373 4.33707 16.5118 4.4169 16.667C4.57742 16.9854 4.90113 17.186 5.25961 17.186H6.93969C6.58152 17.6618 6.38806 18.2412 6.38859 18.8367C6.38859 20.3509 7.61922 21.5815 9.13343 21.5815C10.6476 21.5815 11.8783 20.3509 11.8783 18.8367C11.8783 18.2401 11.6803 17.6596 11.3272 17.186H15.6371C15.2789 17.6618 15.0854 18.2412 15.0859 18.8367C15.0859 20.3509 16.3166 21.5815 17.8308 21.5815C19.345 21.5815 20.5756 20.3509 20.5756 18.8367C20.5756 18.2401 20.3777 17.6596 20.0245 17.186H23.0556C23.5746 17.186 24 16.7633 24 16.2417C23.9984 15.9915 23.898 15.752 23.7206 15.5756C23.5432 15.3992 23.3032 15.3001 23.0529 15.3ZM6.54108 3.2906L21.9454 3.34143L20.4365 11.79L8.33619 11.8114L6.54108 3.2906ZM9.13343 19.6821C8.66793 19.6821 8.28804 19.3022 8.28804 18.8367C8.28804 18.3712 8.66793 17.9913 9.13343 17.9913C9.59893 17.9913 9.97882 18.3712 9.97882 18.8367C9.97882 19.0609 9.88975 19.2759 9.73121 19.4345C9.57267 19.593 9.35764 19.6821 9.13343 19.6821ZM17.8308 19.6821C17.3653 19.6821 16.9854 19.3022 16.9854 18.8367C16.9854 18.3712 17.3653 17.9913 17.8308 17.9913C18.2963 17.9913 18.6762 18.3712 18.6762 18.8367C18.6762 19.0609 18.5871 19.2759 18.4286 19.4345C18.27 19.593 18.055 19.6821 17.8308 19.6821Z" fill="white"/>
</svg>
