<?xml version="1.0" encoding="utf-8"?>
<!-- Generator: Adobe Illustrator 19.0.0, SVG Export Plug-In . SVG Version: 6.00 Build 0)  -->
<svg version="1.1" id="Слой_1" xmlns="http://www.w3.org/2000/svg" xmlns:xlink="http://www.w3.org/1999/xlink" x="0px" y="0px"
	 viewBox="0 0 35 35" style="enable-background:new 0 0 35 35;" xml:space="preserve">
<style type="text/css">
	.st0{fill:#2E2E2E;}
	.st1{fill:#FFFFFF;}
</style>
<circle id="XMLID_7_" class="st0" cx="17.5" cy="17.5" r="17.5"/>
<g id="XMLID_2_">
	<path id="XMLID_6_" class="st1" d="M9.7,10.9h15.5c0.3,0,0.6-0.3,0.6-0.6c0-0.3-0.3-0.6-0.6-0.6H9.7c-0.3,0-0.6,0.3-0.6,0.6
		C9.1,10.7,9.4,10.9,9.7,10.9z"/>
	<path id="XMLID_5_" class="st1" d="M27.6,19.3H7.4c-0.3,0-0.6,0.3-0.6,0.6c0,0.3,0.3,0.6,0.6,0.6h20.3c0.3,0,0.6-0.3,0.6-0.6
		C28.2,19.6,28,19.3,27.6,19.3z"/>
	<path id="XMLID_4_" class="st1" d="M27.6,14.5H7.4c-0.3,0-0.6,0.3-0.6,0.6s0.3,0.6,0.6,0.6h20.3c0.3,0,0.6-0.3,0.6-0.6
		S28,14.5,27.6,14.5z"/>
	<path id="XMLID_3_" class="st1" d="M25.3,24.1H9.7c-0.3,0-0.6,0.3-0.6,0.6c0,0.3,0.3,0.6,0.6,0.6h15.5c0.3,0,0.6-0.3,0.6-0.6
		C25.9,24.3,25.6,24.1,25.3,24.1z"/>
</g>
</svg>
